<?xml version="1.0" encoding="utf-8"?>
<!-- Generator: Adobe Illustrator 19.0.0, SVG Export Plug-In . SVG Version: 6.00 Build 0)  -->
<svg version="1.0" id="Layer_1" xmlns="http://www.w3.org/2000/svg" xmlns:xlink="http://www.w3.org/1999/xlink" x="0px" y="0px"
	 width="431.2px" height="271.5px" viewBox="0 0 431.2 271.5" enable-background="new 0 0 431.2 271.5" xml:space="preserve">
<path id="XMLID_19_" fill="#8DC63F" d="M385.2,250H87.9c-25.4,0-46-20.6-46-46V46c0-25.4,20.6-46,46-46l297.3,0
	c25.4,0,46,20.6,46,46v158C431.2,229.4,410.6,250,385.2,250z"/>
<g id="XMLID_9_">
	<linearGradient id="XMLID_34_" gradientUnits="userSpaceOnUse" x1="15.7567" y1="278.1675" x2="57.6881" y2="179.3833">
		<stop  offset="0" style="stop-color:#006838"/>
		<stop  offset="0.6989" style="stop-color:#8DC63F"/>
		<stop  offset="0.8602" style="stop-color:#8DC63F"/>
	</linearGradient>
	<path id="XMLID_18_" fill="url(#XMLID_34_)" d="M0,271.5v-40c23.1,0,41.8-18.8,41.8-41.8h40C81.8,234.8,45.1,271.5,0,271.5z"/>
</g>
<linearGradient id="XMLID_35_" gradientUnits="userSpaceOnUse" x1="115.6925" y1="109.9583" x2="261.4672" y2="70.8981">
	<stop  offset="0.2527" style="stop-color:#8DC63F"/>
	<stop  offset="1" style="stop-color:#0F6E3A"/>
</linearGradient>
<path id="XMLID_8_" fill="url(#XMLID_35_)" d="M224.5,157.7h-96V28.4h96c18.4,0,33.3,14.9,33.3,33.3v62.7
	C257.8,142.8,242.9,157.7,224.5,157.7z"/>
<circle id="XMLID_3_" fill="#006F3D" cx="102.3" cy="157.7" r="6.8"/>
<circle id="XMLID_1_" fill="#006F3D" cx="61.5" cy="157.7" r="6.8"/>
</svg>
